HIERARCHY
ROOT Hips
{
  OFFSET -32.5998 29.0326 120.673
  CHANNELS 6 Xposition Yposition Zposition Zrotation Xrotation Yrotation
  JOINT LeftUpLeg
  {
    OFFSET 8.64259 1.95398 -2.38835
    CHANNELS 3 Zrotation Xrotation Yrotation
    JOINT LeftLeg
    {
      OFFSET 43.7702 0 0
      CHANNELS 3 Zrotation Xrotation Yrotation
      JOINT LeftFoot
      {
        OFFSET 40.6238 0 0
        CHANNELS 3 Zrotation Xrotation Yrotation
        JOINT LeftToeBase
        {
          OFFSET 12.7242 0 0
          CHANNELS 3 Zrotation Xrotation Yrotation
          End Site
          {
            OFFSET 0 0 0
          }
        }
      }
    }
  }
  JOINT RightUpLeg
  {
    OFFSET -8.2249 1.95398 -2.59336
    CHANNELS 3 Zrotation Xrotation Yrotation
    JOINT RightLeg
    {
      OFFSET 43.5653 0 0
      CHANNELS 3 Zrotation Xrotation Yrotation
      JOINT RightFoot
      {
        OFFSET 40.6238 0 0
        CHANNELS 3 Zrotation Xrotation Yrotation
        JOINT RightToeBase
        {
          OFFSET 12.7242 0 0
          CHANNELS 3 Zrotation Xrotation Yrotation
          End Site
          {
            OFFSET 0 0 0
          }
        }
      }
    }
  }
  JOINT Spine
  {
    OFFSET 0.165834 0.87714 6.61349
    CHANNELS 3 Zrotation Xrotation Yrotation
    JOINT Spine1
    {
      OFFSET 7.38963 1.71661e-005 0
      CHANNELS 3 Zrotation Xrotation Yrotation
      JOINT Spine2
      {
        OFFSET 11.9445 1.14441e-005 0
        CHANNELS 3 Zrotation Xrotation Yrotation
        JOINT Spine3
        {
          OFFSET 14.7254 4.19617e-005 0
          CHANNELS 3 Zrotation Xrotation Yrotation
          JOINT Spine4
          {
            OFFSET 10.9679 0 0
            CHANNELS 3 Zrotation Xrotation Yrotation
            JOINT RightShoulder
            {
              OFFSET 2.46616 -1.6653 3.69651
              CHANNELS 3 Zrotation Xrotation Yrotation
              JOINT RightArm
              {
                OFFSET 13.0012 0 0
                CHANNELS 3 Zrotation Xrotation Yrotation
                JOINT RightForeArm
                {
                  OFFSET 28.7848 1.62311e-005 0
                  CHANNELS 3 Zrotation Xrotation Yrotation
                  JOINT RightHand
                  {
                    OFFSET 26.5688 1.62095e-005 0
                    CHANNELS 3 Zrotation Xrotation Yrotation
                    End Site
                    {
                      OFFSET 0 0 0
                    }
                  }
                }
              }
            }
            JOINT LeftShoulder
            {
              OFFSET 2.38034 -1.29275 -3.7523
              CHANNELS 3 Zrotation Xrotation Yrotation
              JOINT LeftArm
              {
                OFFSET 16.3182 6.07031e-005 0
                CHANNELS 3 Zrotation Xrotation Yrotation
                JOINT LeftForeArm
                {
                  OFFSET 27.0901 0 0
                  CHANNELS 3 Zrotation Xrotation Yrotation
                  JOINT LeftHand
                  {
                    OFFSET 24.5451 1.51738e-005 0
                    CHANNELS 3 Zrotation Xrotation Yrotation
                    End Site
                    {
                      OFFSET 0 0 0
                    }
                  }
                }
              }
            }
            JOINT Neck
            {
              OFFSET 5.0226 -0.0266342 0
              CHANNELS 3 Zrotation Xrotation Yrotation
              JOINT Head
              {
                OFFSET 6.69364 2.86102e-005 0
                CHANNELS 3 Zrotation Xrotation Yrotation
                End Site
                {
                  OFFSET 0 0 0
                }
              }
            }
          }
        }
      }
    }
  }
}
MOTION
Frames:	6
Frame Time:	0.0416667
-154.793 79.3815 -154.646 -67.0659 -68.2536 -67.0074 -173.568 58.8688 123.096 -68.7755 11.4668 -0.818833 83.5746 14.015 0.630689 29.2764 -2.48015 6.55587 173.382 41.3821 67.5704 -66.1628 -22.2046 -4.46258 79.03 -12.796 0.651592 45.3778 -7.1883 -1.28132 0.570179 9.59181 -90.8293 7.69311 0.777755 -1.6773 -3.97873 0.70318 -1.70989 -26.5095 1.24584 -1.3661 -6.49687 1.24584 -1.36609 87.7607 -23.4575 -114.387 22.7166 -27.2389 -18.4544 -36.0585 13.6975 -89.5813 -6.60883 -0.110027 -3.51265 -88.626 -44.1232 79.5861 -5.13618 24.649 -6.06128 17.4642 -18.0131 -109.976 3.82593 -0.233824 -7.01623 35.3957 2.04399 1.31733 -7.37672 1.2538 2.40265 
-149.814 80.5709 -149.776 -66.2537 -72.9995 -65.222 -172.311 57.0007 119.26 -66.2758 16.6053 -1.50395 78.7362 10.9222 -0.342081 33.2144 -0.697756 6.84464 171.746 31.5327 65.3534 -56.3722 -21.2542 -5.98671 73.7385 -9.04632 1.39638 47.4 -7.94463 -4.08582 0.60791 9.42986 -90.7239 8.01744 0.896531 -1.48039 -3.6541 0.83051 -1.5184 -26.1873 1.29997 -1.14255 -6.17466 1.29996 -1.14256 88.0107 -23.1509 -114.016 27.5769 -24.9071 -14.0195 -32.8588 14.4425 -92.4815 -6.48295 -0.0888612 -3.89553 -87.8281 -39.5841 79.904 4.5553 25.2159 -14.8085 14.2732 -17.7051 -111.806 5.05323 -0.215581 -6.25908 32.0701 -1.31999 -2.73685 -6.77413 -0.211401 3.20951 
-143.917 83.5572 -143.714 -58.3962 -77.8023 -54.2703 -171.095 54.7723 114.17 -67.1669 17.6852 -1.80373 78.6039 11.0092 0.148843 26.604 -3.19504 5.13385 169.934 18.2309 66.4506 -39.862 -18.8716 -6.8672 59.7392 -0.621241 3.00579 49.5423 -8.79434 -6.04011 0.491265 9.05226 -91.01 8.77187 0.531433 -2.03047 -2.90063 0.441563 -2.05189 -25.4262 1.11701 -1.77702 -5.41357 1.11702 -1.77703 88.7369 -23.3782 -112.324 31.0385 -23.5225 -7.63178 -29.6941 16.2466 -97.2269 -5.8864 -0.00131273 -5.62075 -87.095 -34.593 80.0276 10.5259 24.1515 -25.7194 13.1318 -17.5453 -111.258 4.99065 -0.191324 -5.8736 27.1008 -3.76938 -8.20251 -7.2459 -0.715837 5.35501 
-136.765 86.6927 -136.68 -37.5097 -80.4864 -30.8678 -171.105 50.3806 109.045 -65.6742 15.8413 -0.738555 81.3373 12.7547 -0.766108 27.9672 -3.33402 7.06943 170.289 11.1795 68.765 -33.8365 -15.6058 -8.65563 57.1599 2.05532 -0.855392 24.2274 1.61387 1.0213 0.136437 8.54122 -91.3494 9.77974 -0.338943 -2.64725 -1.89382 -0.455075 -2.62979 -24.4077 0.472045 -2.62679 -4.39503 0.47204 -2.62679 90.0503 -23.5304 -109.399 31.3327 -24.624 -2.43955 -28.6139 18.9496 -102.162 -4.26733 0.0758288 -8.46133 -87.0279 -30.6614 79.1877 12.714 21.1618 -31.4469 10.4042 -16.2879 -112.73 6.17797 -0.37284 -8.1381 19.5791 -3.94459 -14.1958 -7.77312 0.24307 8.29375 
-129.307 89.0611 -130.35 -40.4739 -81.5421 -31.9033 -169.832 42.6816 104.566 -64.1425 10.0134 -0.327206 87.6619 15.6105 -3.72719 26.1832 -4.6271 7.93965 171.572 10.6199 71.5997 -40.1846 -20.3844 -9.2226 62.6421 -1.32123 -4.09332 14.9963 4.17476 5.73569 0.215004 8.50547 -91.6616 9.84652 -0.324751 -3.27058 -1.82845 -0.468305 -3.25313 -24.3314 0.672673 -3.21714 -4.31877 0.672675 -3.21714 92.6779 -21.721 -104.304 33.0285 -26.6073 -0.178952 -27.5812 21.5274 -107.077 -1.92003 0.0122853 -8.59706 -86.9611 -27.0255 78.3135 13.9867 15.4402 -33.371 12.718 -16.7489 -115.367 7.73384 -0.31773 -6.93915 16.2955 -1.54182 -12.9145 -8.39456 1.73413 9.2438 
-121.22 91.1765 -125.11 -59.9704 -79.3483 -51.3455 -166.972 34.2946 98.2007 -59.8873 3.64405 -1.92511 89.6798 17.0348 -2.25453 26.6158 -3.87628 6.71205 172.372 18.251 73.7333 -50.6677 -19.4932 -6.48117 64.5766 -2.45422 -3.96447 16.4104 3.2143 6.7112 0.273867 8.578 -91.7535 9.70093 -0.24677 -3.45857 -1.97455 -0.398657 -3.44438 -24.4741 0.803461 -3.37308 -4.46142 0.803461 -3.37309 93.0659 -20.9349 -103.723 31.5935 -28.8213 0.234973 -22.4212 22.4293 -112.527 -0.357455 -0.0376114 -9.66554 -86.4215 -27.0687 79.4058 13.6165 13.3318 -25.9227 10.3694 -14.5291 -117.603 6.48237 -0.124785 -4.82434 15.5381 4.68666 -6.39458 -10.6954 5.7437 9.11141 
